<svg width="20" height="22" viewBox="0 0 20 22" fill="none" xmlns="http://www.w3.org/2000/svg">
<path d="M19.7183 7.19024C18.5352 2.2322 13.9944 0 10.0056 0H9.99437C6.01689 0 1.46477 2.22146 0.281666 7.17951C-1.03665 12.7171 2.52393 17.4068 5.74647 20.358C6.88869 21.411 8.41599 21.9998 10.0056 22C11.538 22 13.0704 21.4527 14.2535 20.358C17.4761 17.4068 21.0366 12.7278 19.7183 7.19024ZM10.0056 12.5668C9.53953 12.5668 9.078 12.4794 8.64737 12.3095C8.21675 12.1396 7.82548 11.8906 7.4959 11.5767C7.16631 11.2628 6.90487 10.8901 6.7265 10.48C6.54813 10.0699 6.45633 9.63027 6.45633 9.18634C6.45633 8.74241 6.54813 8.30282 6.7265 7.89269C6.90487 7.48255 7.16631 7.10988 7.4959 6.79598C7.82548 6.48207 8.21675 6.23306 8.64737 6.06318C9.078 5.89329 9.53953 5.80585 10.0056 5.80585C10.947 5.80585 11.8497 6.16201 12.5154 6.79598C13.181 7.42994 13.5549 8.28978 13.5549 9.18634C13.5549 10.0829 13.181 10.9427 12.5154 11.5767C11.8497 12.2107 10.947 12.5668 10.0056 12.5668Z" fill="#A3A3A3"/>
</svg>
