<svg width="20" height="20" viewBox="0 0 20 20" fill="none" xmlns="http://www.w3.org/2000/svg">
<path d="M10 0C4.49 0 0 4.49 0 10C0 15.51 4.49 20 10 20C15.51 20 20 15.51 20 10C20 4.49 15.51 0 10 0ZM14.35 13.57C14.2999 13.6552 14.2334 13.7296 14.1544 13.7889C14.0753 13.8482 13.9852 13.8912 13.8894 13.9154C13.7935 13.9396 13.6939 13.9445 13.5961 13.9299C13.4984 13.9152 13.4045 13.8812 13.32 13.83L10.22 11.98C9.45 11.52 8.88 10.51 8.88 9.62V5.52C8.88 5.11 9.22 4.77 9.63 4.77C10.04 4.77 10.38 5.11 10.38 5.52V9.62C10.38 9.98 10.68 10.51 10.99 10.69L14.09 12.54C14.45 12.75 14.57 13.21 14.35 13.57Z" fill="#A3A3A3"/>
</svg>
