<svg width="16" height="17" viewBox="0 0 16 17" fill="none" xmlns="http://www.w3.org/2000/svg">
<path d="M8 12.075C7.86667 12.075 7.74167 12.0543 7.625 12.013C7.50834 11.9717 7.4 11.9007 7.3 11.8L3.7 8.2C3.51667 8.01667 3.425 7.78334 3.425 7.5C3.425 7.21667 3.51667 6.98334 3.7 6.8C3.88333 6.61667 4.121 6.521 4.413 6.513C4.705 6.505 4.94234 6.59234 5.125 6.775L7 8.65V1.5C7 1.21667 7.096 0.979004 7.288 0.787004C7.48 0.595004 7.71734 0.499337 8 0.500003C8.28334 0.500003 8.521 0.596004 8.713 0.788004C8.905 0.980004 9.00067 1.21734 9 1.5V8.65L10.875 6.775C11.0583 6.59167 11.296 6.504 11.588 6.512C11.88 6.52 12.1173 6.616 12.3 6.8C12.4833 6.98334 12.575 7.21667 12.575 7.5C12.575 7.78334 12.4833 8.01667 12.3 8.2L8.7 11.8C8.6 11.9 8.49167 11.971 8.375 12.013C8.25834 12.055 8.13334 12.0757 8 12.075ZM2 16.5C1.45 16.5 0.979002 16.304 0.587002 15.912C0.195002 15.52 -0.000664969 15.0493 1.69779e-06 14.5V12.5C1.69779e-06 12.2167 0.0960018 11.979 0.288002 11.787C0.480002 11.595 0.717335 11.4993 1 11.5C1.28333 11.5 1.521 11.596 1.713 11.788C1.905 11.98 2.00067 12.2173 2 12.5V14.5H14V12.5C14 12.2167 14.096 11.979 14.288 11.787C14.48 11.595 14.7173 11.4993 15 11.5C15.2833 11.5 15.521 11.596 15.713 11.788C15.905 11.98 16.0007 12.2173 16 12.5V14.5C16 15.05 15.804 15.521 15.412 15.913C15.02 16.305 14.5493 16.5007 14 16.5H2Z" fill="#0054A6"/>
</svg>
